<svg viewBox="0 0 500 468" fill="none" xmlns="http://www.w3.org/2000/svg" fill="black">
<path fill-rule="evenodd" clip-rule="evenodd" d="M195.795 0C171.083 0 150.173 11.4056 140.669 17.1083C133.065 21.6706 65.2651 57.0278 32.3157 74.1361C17.1083 82.0323 0 94.2859 0 121.659V216.706C0 226.21 0 230.012 20.9102 241.418C37.6383 250.542 88.7099 280.703 112.155 294.644C114.689 296.544 121.279 300.346 127.362 300.346V370.681C127.362 378.284 127.362 383.607 140.669 391.591C178.687 414.402 239.613 464.148 302.247 467.628C336.464 469.529 344.068 463.826 382.086 442.916C412.03 426.446 465.727 393.492 488.538 378.284C492.34 377.017 499.944 368.019 499.944 342.167V247.12C500.577 240.15 496.142 223.549 473.331 212.904C450.519 202.259 395.393 174.252 370.681 161.579V91.2444C370.681 79.8389 362.316 68.0531 328.86 51.325C249.021 11.4056 237.616 0 195.795 0ZM49.4241 91.2444L167.281 34.2167C188.572 23.9149 211.636 26.1224 220.507 28.5139C246.487 41.1867 303.388 68.8135 323.157 77.938C342.927 87.0624 331.395 104.551 323.157 112.155C290.842 128.629 223.169 163.099 211.003 169.182C195.795 176.786 190.093 180.588 167.281 182.489C149.033 184.01 133.065 176.786 127.362 172.984C107.719 162.846 62.7306 139.908 39.9194 129.263C24.712 121.659 32.3157 98.8481 49.4241 91.2444ZM292.743 190.093L174.885 252.823C149.033 266.583 159.044 283.902 167.281 290.842C183.123 299.713 222.408 321.637 252.823 338.365C283.238 355.093 321.256 345.335 336.464 338.365C365.611 320.623 429.229 282.097 450.519 269.931C471.81 257.766 459.39 240.784 450.519 233.814C425.807 221.775 374.102 196.936 364.978 193.894C353.572 190.093 334.563 182.489 319.356 182.489C307.19 182.489 296.544 187.558 292.743 190.093Z" />
</svg>
