<?xml version="1.0" encoding="UTF-8"?>
<svg id="_圖層_5" data-name="圖層 5" xmlns="http://www.w3.org/2000/svg" viewBox="0 0 500 500">
  
  <path  d="M240.61,147.28c0,45.96-.07,91.92,.11,137.89,.02,4.92-1.7,7.63-5.96,9.79-34.86,17.68-69.64,35.51-104.45,53.29-4.28,2.19-6.89,.67-7.03-4.09-.05-1.55,.01-3.11,.01-4.66,0-90.84,.04-181.68-.15-272.51-.01-5.97,1.89-9.23,7.22-11.92C164.28,37.98,198.04,20.57,231.86,3.29c1.1-.56,2.23-1.14,3.4-1.5,3.04-.92,4.8,.39,5.28,3.42,.19,1.21,.06,2.48,.06,3.72,0,46.12,0,92.24,0,138.35Z"/>
  <path  d="M259.58,199.35c0-28.56,0-57.13,0-85.69,0-7.74,.41-8.62,8.2-7.91,29.69,2.71,56.29,12.31,77.48,34.54,15.08,15.82,24.03,34.54,27.82,55.71,2.06,11.53,3.37,23.34,3.51,35.04,.44,37.25,.17,74.51,.18,111.77,0,6.69-1.91,7.92-7.76,4.93-30.22-15.47-60.43-30.97-90.65-46.45-4.55-2.33-9.04-4.81-13.69-6.92-3.77-1.7-5.16-4.29-5.14-8.39,.12-28.87,.06-57.75,.06-86.62Z"/>
  <path  d="M443.26,489.28c-5.55,5.2-11.64,8.05-18.84,8.99-15.07,1.96-31.58-11.14-31.96-26.31-.41-16.29-.05-32.59-.14-48.89-.02-3.08,1.26-4.09,4.19-4.06,12.11,.12,11.55-1.31,11.47,11.07-.08,12.57,.26,25.15-.11,37.72-.29,10.06,7.35,15.15,14.05,15.13,6.7-.01,13.84-6.51,13.63-15.28-.33-14.43-.1-28.87-.09-43.3,0-4.89,.38-5.26,5.32-5.27,11.44-.03,10.53-1,10.51,10.49-.03,13.04-.02,26.08,0,39.12,.01,7.96,5.8,14.12,13.35,14.3,7.47,.18,14.06-6.42,14.09-14.3,.06-14.59,.02-29.18,.02-43.77,0-5.77,.06-5.88,5.57-5.85,11.1,.07,9.97-1.47,9.98,9.82,.01,13.04-.13,26.08,.04,39.12,.22,16.61-11.6,29.65-28.98,30.47-6.56,.31-12.82-1.8-18.17-5.95-1.21-.94-2.37-1.95-3.94-3.24Z"/>
  <path   d="M218.69,426.37c4.31-1.85,7.95-3.82,11.83-5.01,26.39-8.13,52.11,10.93,52.06,38.42-.02,11.02-.11,22.04,.05,33.06,.05,3.61-1.24,4.98-4.86,4.94-11.99-.11-11.26,.89-11.19-10.94,.05-9.31-.4-18.65,.12-27.93,.54-9.49-7.43-21.63-20.57-23.96-11.07-1.96-22.98,5.57-26.49,16.58-.79,2.46-1.17,5.14-1.2,7.73-.13,11.02-.06,22.04-.07,33.06,0,5.23-.11,5.36-5.09,5.39-11.34,.06-10.66,.92-10.65-10.43,.04-32.44,.01-64.88,.02-97.33,0-5.8,.02-5.87,5.62-5.81,11.67,.13,10.03-1.76,10.12,10,.07,9.16,0,18.32,.03,27.47,0,1.47,.18,2.94,.29,4.76Z"/>
  <path  d="M21.69,427.17c8-5.45,15.97-7.9,24.68-7.83,20.97,.16,38.78,17.54,39.22,38.58,.25,11.79-.01,23.59,.08,35.38,.03,3.16-1.16,4.48-4.37,4.43-13.24-.23-11.31,1.62-11.4-10.79-.07-9.31,0-18.62-.02-27.94-.02-12.01-9.61-22.77-21.5-24.17-11.86-1.39-23.98,7.37-26.48,19.23-.28,1.35-.21,2.78-.22,4.17-.02,11.48-.1,22.97,.05,34.45,.05,3.52-1.02,5.11-4.74,5.06-13.07-.19-11.28,1.28-11.3-10.98-.04-32.28-.02-64.56-.01-96.84,0-5.72,.09-5.84,5.67-5.8,11.61,.07,10.26-1.52,10.3,10.47,.04,10.52,0,21.05,0,32.57Z"/>
  <path d="M164,488.62c-9.47,8.22-19.8,11.4-31.4,9.01-9.7-2-17.6-7.12-23.86-14.89-10.85-13.48-10.68-35.52,.47-49.04,6.8-8.25,15.48-13.26,26-14.64,10.6-1.39,20.13,1.55,28.04,8.67,.6-.48,.94-.61,1.01-.83,.74-2.36,1.05-6.51,2.21-6.76,3.94-.85,8.19-.42,12.3-.17,.5,.03,1.25,1.98,1.25,3.05,.07,23.57,.02,47.15,.09,70.72,0,3.02-1.2,4.3-4.15,4.08-.77-.06-1.55,0-2.33,0q-8.56,0-9.64-9.19Zm.5-29.71c.09-13.4-10.41-24.77-23.66-24.71-14.44,.07-24.28,10.61-24.85,24.17-.55,13.03,11.25,24.46,24.59,24.47,12.96,.02,23.83-10.87,23.92-23.93Z"/>
  <path  d="M377.02,458.85c-.02,22.24-17.67,39.79-39.95,39.6-22.51-.19-40.55-18.74-39.41-42.5,.87-18.11,17.21-38.98,43.23-36.98,19.81,1.52,36.54,18.32,36.13,39.88Zm-39.22-24.33c-12.09-.95-24.32,9.5-24.82,23.52-.46,13.13,11.01,25.12,24.2,24.87,13.34-.25,24.26-9.36,24.45-24.44,.19-14.98-12.64-24.46-23.83-23.95Z"/>
</svg>