<?xml version="1.0" encoding="UTF-8"?>
<svg id="_圖層_1" data-name="圖層 1" xmlns="http://www.w3.org/2000/svg" viewBox="0 0 500 500">
  <path   d="M492,275.62c0,52.91,.02,105.82,0,158.74-.01,37.72-7.75,46.19-45.24,48.34-78.91,4.51-157.83,8.82-236.74,13.18-29.9,1.65-59.81,4.48-89.69,4.1-9.65-.12-21.96-6.43-28.28-13.94-24.62-29.24-48.58-59.24-70.1-90.79-8.35-12.24-13.29-29.29-13.47-44.23-1.19-95.81-.69-191.64-.61-287.47,.02-31.56,10.11-40.7,41.72-42.88C137.93,14.58,226.32,8.77,314.48,.52c36.44-3.41,64.41,10.16,91.63,31.03,21.11,16.19,43.04,31.41,65.29,46.01,14.66,9.61,21.18,21.45,20.9,39.33-.84,52.9-.3,105.82-.29,158.73Zm-39.86,167.67c2.05-9.19,5.12-16.64,5.15-24.1,.31-92.9,.21-185.81,.13-278.71-.02-22.71-2.76-26-24.98-24.77-101.33,5.6-202.64,11.67-303.96,17.52-12.93,.75-19.11,6.14-19.04,20.31,.45,94.57,.24,189.14,.27,283.71,0,20.57,6.87,26.25,27.31,25,68.07-4.15,136.18-7.76,204.26-11.77,36.05-2.13,72.08-4.66,110.86-7.19Zm-27.53-362.84c-15.26-11.53-26.19-19.36-36.65-27.78-20.19-16.24-41.97-24.66-68.92-22.41-75.35,6.27-150.85,10.72-226.28,16.14-12.77,.92-25.44,3.11-39.28,4.85,18,33.48,61.55,51.98,102.54,45.93,3.69-.55,7.41-1.11,11.13-1.31,65.58-3.61,131.18-7.08,196.75-10.8,18.38-1.04,36.71-2.77,60.71-4.62Z"/>
  <path  d="M349.81,325.46V194.97c-8.23-1.23-16.16-2.42-29.24-4.38,7.01-7.81,10.95-16.41,15.96-17.09,23.71-3.21,47.71-4.26,71.75-6.09,4.89,21.73-12.41,18.41-22.7,23.82v210.77c-29.16,19.3-49.64,16-67.46-11.03-28.18-42.76-55.73-85.93-83.59-128.9-2.36-3.64-5.03-7.08-9.27-13v139.97c9.5,2.56,18.53,4.99,32.67,8.8-7.62,6.77-11.94,13.97-17.03,14.56-25.54,3.01-51.28,4.28-76.79,6.16q-1.58-9.19,21.87-23.21V207.19c-8.14-1.26-15.33-2.38-22.73-3.53-2.35-13.17,3.41-20.78,14.94-21.97,21.94-2.25,44.03-3.61,66.07-3.83,4.8-.05,11.17,5.26,14.26,9.83,25.89,38.29,51.18,76.98,76.65,115.55,4.09,6.19,8.16,12.39,14.64,22.22Z"/>
</svg>