<?xml version="1.0" encoding="UTF-8"?>
<svg id="_圖層_4" data-name="圖層 4" xmlns="http://www.w3.org/2000/svg" viewBox="0 0 500 500">
  
  <path  d="M124.34,304.69c0-28.89,.19-57.78-.15-86.66-.07-6.19,1.66-7.81,7.76-7.65,16.89,.43,33.8,.5,50.68-.03,6.4-.2,7.6,1.87,7.58,7.73-.19,52.05-.15,104.11-.05,156.16,.05,23.24,7.71,43.06,28.41,55.44,20.06,12,41.14,12.23,61.46,.71,21.29-12.07,29.6-32.01,29.72-55.53,.28-51.51,.07-103.02,.14-154.52,.02-12.17-.81-9.65,10.08-9.76,16.08-.16,32.16,.16,48.23-.15,5.34-.1,7.58,.89,7.56,6.97-.23,55.32,.4,110.65-.27,165.97-.79,65.47-41.72,108.83-107.5,115.55-31.65,3.23-62.06-.3-89.98-16.56-37.94-22.09-53.13-56.8-53.61-99.17-.3-26.16-.06-52.32-.05-78.49Z"/>
  <path  d="M375.73,110.16c0,10.63-.08,21.25,.04,31.88,.05,4.35-1.33,5.57-5.22,3.18-23.17-14.21-46.24-28.59-69.56-42.55-16-9.58-32.27-18.73-48.66-27.62-1.82-.98-5.63,.42-7.9,1.76-36.59,21.57-73.06,43.34-109.61,64.98-2.95,1.75-6.25,2.9-9.39,4.33-.4-3.38-1.13-6.75-1.15-10.13-.1-18.53,.11-37.05-.11-55.58-.06-4.85,1.22-7.98,5.61-10.57C168,47.31,206.15,24.63,244.22,1.81c4.39-2.63,7.79-2.25,11.96,.23,37.89,22.57,75.84,45.05,113.87,67.4,4.29,2.52,5.95,5.55,5.78,10.49-.33,10.07-.1,20.16-.1,30.24Z"/>
</svg>