<?xml version="1.0" encoding="UTF-8"?>
<svg id="_圖層_2" data-name="圖層 2" xmlns="http://www.w3.org/2000/svg" viewBox="0 0 500 500">
 
  <path  d="M252.21,268.69c-.49-1.18-.98-2.36-1.47-3.54-.27,.04-.53,.07-.8,.11,0,22.84,0,45.68,0,68.52-11.28-.02-22.57-.04-33.86-.05-19.12-.02-38.23-.04-57.35-.07-4.77-1.08-9.58-2-14.3-3.26-33.7-9-58.58-39.66-60.89-74.5-2.88-43.5,27.99-81.19,69.54-87.94,2.88-.47,5.81-.64,8.71-.96,.52-.1,1.03-.2,1.54-.3,28.51,.03,57.02,.07,85.54,.1,.38,.13,.76,.26,1.15,.39,0,23.61,0,47.22,0,70.82,.18,0,.36,0,.54,0,.25-.78,.5-1.56,.74-2.34-1.31,11.04-1.47,22.05,.91,32.99Z"/>
  <path  d="M250.03,167.21c-.38-.13-.76-.26-1.15-.39,.37-1.11,1.08-2.23,1.08-3.34,.05-54.35,.04-108.7,.04-163.05,1.03-.1,2.05-.29,3.08-.29,26.78-.02,53.57-.02,80.35-.02,39.87,0,74.85,29.31,81.79,68.54,8.32,47.06-23.32,90.84-70.5,97.53-1.84,.26-3.68,.49-5.53,.73-4.29,.03-8.59,.06-12.88,.08-.72-.04-1.45-.12-2.18-.12-23.77,.02-47.55,.05-71.32,.09-.93,0-1.86,.16-2.78,.24Z"/>
  <path d="M250,.42c0,54.35,.01,108.7-.04,163.05,0,1.11-.71,2.23-1.08,3.34-28.51-.03-57.02-.07-85.53-.1-.53-.03-1.07-.06-1.6-.09-38.47-1.54-74.25-32.36-78.04-75.98C79.96,47.57,110.47,7.72,154.67,1.23c.41-.06,.83-.04,1.25-.06,0,0,.25,.05,.25,.05l.24-.1c1.48-.15,2.96-.31,4.43-.46,.2-.02,.4-.05,.6-.07,0,0,.15-.03,.15-.03,28.48,0,56.97,.01,85.45,0,.62,0,1.24-.14,1.85-.22,.37,.02,.74,.05,1.11,.07Z"/>
  <path d="M158.74,333.67c19.12,.02,38.23,.04,57.35,.07,11.29,.01,22.57,.03,33.86,.05,.05,10.46,.13,20.92,.14,31.38,.02,17.26,.07,34.52,0,51.78-.17,39.56-28.36,73.98-66.63,81.43-49.2,9.58-94.63-24.22-99.7-74.18-4.5-44.41,28.69-85.35,73.14-90.21,.62-.07,1.24-.21,1.85-.31Z"/>
  <path d="M326.31,167c4.29-.03,8.59-.06,12.88-.08,8.61,2.07,17.65,3.06,25.74,6.38,57.98,23.76,69.94,100.35,21.97,140.64-40.16,33.73-100.65,22.64-126.43-23.28,0,0-.07-.13-.07-.13-.23-.48-.46-.96-.69-1.44-.3-.51-.61-1.03-.92-1.55-.25-.55-.5-1.1-.75-1.65,0,0,.02,.02,.02,.02-.21-.43-.42-.85-.63-1.28,0,0,.03,.03,.03,.03-.25-.56-.5-1.11-.75-1.66-1.42-4.06-2.84-8.13-4.26-12.2-.08-.71-.16-1.41-.24-2.12-2.38-10.94-2.22-21.95-.91-32.99,.15-.7,.29-1.39,.44-2.09,.62-2.51,1.24-5.03,1.85-7.54,.19-.63,.37-1.26,.56-1.9,.14-.12,.19-.29,.14-.52l.51-1.28c.21-.63,.43-1.25,.64-1.88,9.61-23.94,26.46-40.5,50.84-48.99,6.42-2.23,13.34-3.04,20.02-4.51Z"/>

</svg>