<?xml version="1.0" encoding="UTF-8"?>
<svg id="_圖層_3" data-name="圖層 3" xmlns="http://www.w3.org/2000/svg" viewBox="0 0 500 500">
  <path  d="M498.72,264.33c-1.56,11.57-2.81,23.19-4.72,34.7-5.93,35.66-18.66,68.78-39.11,98.47-15.13,21.97-32.05,42.59-54.98,57.14-15.85,10.05-31.61,20.29-47.74,29.87-5.39,3.2-11.72,4.93-17.79,6.8-7.33,2.25-10.68-3.84-13.52-8.46-2.15-3.5-2.55-8.46-2.63-12.8-.42-24.22,.43-48.5-1.15-72.63-.68-10.42-5.48-20.82-9.67-30.68-3.54-8.32-3.22-10.28,5.44-11.6,22.39-3.42,44.02-9.85,63.5-21.34,12.21-7.2,20.8-18.88,27.42-31.73,9.27-17.99,12.06-37.61,13.26-57.3,1.37-22.52,.96-44.8-7.96-66.63-3.54-8.66-8.86-15.25-14.03-22.1-5.49-7.27-7.16-14.48-6.6-23.28,.96-14.96,2.34-30-2.39-44.78-2.96-9.24-7.13-13.2-16.22-10.99-10.13,2.46-20.07,6.05-29.7,10.11-9.88,4.16-19.13,9.82-28.95,14.13-3.29,1.44-7.61,1.48-11.28,.94-38.16-5.59-76.14-5.99-114.08,2.23-4.11,.89-10.02-.99-13.48-3.68-14.62-11.37-31.41-17.43-49.01-21.39-15.46-3.48-17.52-1.86-22.04,13.29-4.9,16.43-4.39,33.08-1.26,49.68,1.12,5.96,.27,10.8-3.51,15.54-3.62,4.54-6.92,9.4-9.89,14.41-15.32,25.89-13.53,54.08-9.84,82.18,5.56,42.23,27.26,72.09,66.49,90.19,11.88,5.48,23.87,5.92,35.65,9.27,2.92,.83,6.57,.7,8.64,2.47,1.94,1.67,3.62,5.67,2.98,7.96-1.55,5.49-5.06,10.4-6.79,15.87-2.34,7.37-7.35,10.42-14.35,12.16-22.57,5.61-40.98-.24-54.82-19.33-3.41-4.71-6.64-9.58-9.72-14.52-5.6-8.98-27.9-16.59-37.37-12.63-4.92,2.06-5.6,5.07-1.93,8.92,1.53,1.6,3.16,3.21,5.03,4.36,12.6,7.78,20.89,19.36,26.21,32.68,13.74,34.43,42.76,39.49,67.72,37.84,1.93-.13,3.85-.46,5.78-.66,5.39-.57,8.72,1.61,8.76,7.31,.09,13.66,.6,27.36-.18,40.98-.71,12.37-9.87,16.12-21.57,11.7-21.47-8.12-40.92-19.55-58.9-33.59-24.23-18.92-44.35-41.32-60.6-67.84-19.76-32.25-31.87-66.66-35.44-104.15C0,258.33,1.59,233.5,6.21,208.62c5.32-28.68,15.74-55,30.6-79.82,20.8-34.74,48.11-63.23,82.7-83.89C162.06,19.48,208.2,6.66,258.12,8.36c30.94,1.05,60.51,7.86,88.68,20.14,24.19,10.54,46.82,24.18,66.51,42.05,47.78,43.35,75.73,97.16,83.16,161.59,.79,6.82,1.49,13.65,2.24,20.47v11.72Z"/>
</svg>