<svg xmlns="http://www.w3.org/2000/svg" style="display:none">
  <symbol id="icon-figma" width="500" height="500" fill="none" viewBox="0 0 500 500">
    <path fill="#fdfdfd" d="M161.44,.59c-.2,.02-.4,.05-.6,.07-1.48,.15-2.96,.31-4.43,.46-.16,.02-.33,.03-.49,.05-.42,.02-.84,0-1.25,.06-44.2,6.49-74.71,46.34-70.96,89.41,3.79,43.62,39.57,74.44,78.04,75.98-.06,.14-.04,.27,.06,.39-2.9,.31-5.83,.49-8.71,.96-41.55,6.75-72.42,44.44-69.54,87.94,2.31,34.84,27.19,65.5,60.89,74.5,4.72,1.26,9.53,2.18,14.3,3.26-.62,.11-1.23,.24-1.85,.31-44.45,4.87-77.64,45.81-73.14,90.21,5.07,49.96,50.5,83.76,99.7,74.18,38.26-7.45,66.46-41.87,66.63-81.43,.07-17.26,.03-34.52,0-51.78-.01-10.46-.09-20.92-.14-31.38v-68.52c.27-.04,.53-.07,.8-.11,.49,1.18,.98,2.36,1.47,3.54,.08,.71,.16,1.41,.24,2.12,1.42,4.06,2.84,8.13,4.26,12.19,.25,.56,.5,1.11,.75,1.67l-.03-.03c.21,.43,.42,.85,.64,1.28l-.02-.02c.25,.55,.5,1.1,.75,1.65l.92,1.54c.23,.48,.46,.96,.69,1.44l-.04,.14h.11c25.78,45.91,86.27,57,126.43,23.27,47.97-40.29,36.01-116.87-21.97-140.64-8.09-3.32-17.14-4.31-25.74-6.38,1.84-.24,3.69-.47,5.53-.73,47.18-6.7,78.82-50.47,70.5-97.53C408.28,29.42,373.3,.11,333.43,.11c-26.78,0-53.57,0-80.35,.02-1.03,0-2.05,.19-3.08,.29-.37-.02-.74-.05-1.11-.07-.92-.12-1.84-.34-2.75-.34-26.86-.01-53.73-.01-80.59,.02-1.32,0-2.64,.35-3.96,.53,0,0-.15,.03-.15,.03Z"/>
    <path fill="#a159fe" d="M252.21,268.69c-.49-1.18-.98-2.36-1.47-3.54-.27,.04-.53,.07-.8,.11,0,22.84,0,45.68,0,68.52-11.28-.02-22.57-.04-33.86-.05-19.12-.02-38.23-.04-57.35-.07-4.77-1.08-9.58-2-14.3-3.26-33.7-9-58.58-39.66-60.89-74.5-2.88-43.5,27.99-81.19,69.54-87.94,2.88-.47,5.81-.64,8.71-.96,.52-.1,1.03-.2,1.54-.3,28.51,.03,57.02,.07,85.54,.1,.38,.13,.76,.26,1.15,.39,0,23.61,0,47.22,0,70.82,.18,0,.36,0,.54,0,.25-.78,.5-1.56,.74-2.34-1.31,11.04-1.47,22.05,.91,32.99Z"/>
    <path fill="#fd7261" d="M250.03,167.21c-.38-.13-.76-.26-1.15-.39,.37-1.11,1.08-2.23,1.08-3.34,.05-54.35,.04-108.7,.04-163.05,1.03-.1,2.05-.29,3.08-.29,26.78-.02,53.57-.02,80.35-.02,39.87,0,74.85,29.31,81.79,68.54,8.32,47.06-23.32,90.84-70.5,97.53-1.84,.26-3.68,.49-5.53,.73-4.29,.03-8.59,.06-12.88,.08-.72-.04-1.45-.12-2.18-.12-23.77,.02-47.55,.05-71.32,.09-.93,0-1.86,.16-2.78,.24Z"/>
    <path fill="#1bbbfb" d="M158.74,333.67c19.12,.02,38.23,.04,57.35,.07,11.29,.01,22.57,.03,33.86,.05,.05,10.46,.13,20.92,.14,31.38,.02,17.26,.07,34.52,0,51.78-.17,39.56-28.36,73.98-66.63,81.43-49.2,9.58-94.63-24.22-99.7-74.18-4.5-44.41,28.69-85.35,73.14-90.21,.62-.07,1.24-.21,1.85-.31Z"/>
    <path fill="#a159fe" d="M326.31,167c4.29-.03,8.59-.06,12.88-.08,8.61,2.07,17.65,3.06,25.74,6.38,57.98,23.76,69.94,100.35,21.97,140.64-40.16,33.73-100.65,22.64-126.43-23.28,0,0-.07-.13-.07-.13-.23-.48-.46-.96-.69-1.44-.3-.51-.61-1.03-.92-1.55-.25-.55-.5-1.1-.75-1.65,0,0,.02,.02,.02,.02-.21-.43-.42-.85-.63-1.28,0,0,.03,.03,.03,.03-.25-.56-.5-1.11-.75-1.66-1.42-4.06-2.84-8.13-4.26-12.2-.08-.71-.16-1.41-.24-2.12-2.38-10.94-2.22-21.95-.91-32.99,.15-.7,.29-1.39,.44-2.09,.62-2.51,1.24-5.03,1.85-7.54,.19-.63,.37-1.26,.56-1.9,.14-.12,.19-.29,.14-.52l.51-1.28c.21-.63,.43-1.25,.64-1.88,9.61-23.94,26.46-40.5,50.84-48.99,6.42-2.23,13.34-3.04,20.02-4.51Z"/>
    <path fill="#fd7261" d="M248.89,.35c-.62,.08-1.24,.22-1.85,.22-28.48,0-56.97,0-85.45,0,1.32-.18,2.64-.53,3.96-.53C192.42,0,219.28,0,246.14,0c.92,0,1.84,.22,2.75,.34Z"/>
    <path fill="#a159fe" d="M252.45,270.81c1.42,4.07,2.84,8.14,4.26,12.2-1.42-4.07-2.84-8.13-4.26-12.2Z"/>
    <path fill="#a159fe" d="M258.8,287.54c.31,.52,.62,1.04,.92,1.55-.31-.52-.61-1.03-.92-1.55Z"/>
    <path fill="#fd7261" d="M161.74,166.62c.53,.03,1.07,.06,1.6,.09-.51,.1-1.03,.2-1.54,.3-.1-.12-.12-.25-.06-.39Z"/>
    <polygon fill="#a159fe" points="260.41 290.52 260.47 290.65 260.36 290.67 260.41 290.52"/>
    <path fill="#fd7261" d="M156.41,1.12l-.24,.1s-.25-.05-.25-.05c.16-.02,.33-.03,.49-.05Z"/>
    <path fill="#fd7261" d="M161.44,.59c-.2,.02-.4,.05-.6,.07,.2-.02,.4-.05,.6-.07Z"/>
    <path fill="#a159fe" d="M257.46,284.66s-.03-.03-.03-.03c0,0,.03,.03,.03,.03Z"/>
    <path fill="#a159fe" d="M258.07,285.91s-.02-.02-.02-.02c0,0,.02,.02,.02,.02Z"/>
    <path fill="#fdfdfd" d="M254.16,224.17c-.19,.63-.37,1.26-.55,1.89-.62,2.51-1.24,5.03-1.86,7.55-.15,.69-.29,1.39-.44,2.09-.25,.78-.5,1.56-.74,2.34-.18,0-.36,0-.54,0,0-23.61,0-47.22,0-70.82,.93-.08,1.85-.24,2.78-.24,23.77-.04,47.55-.07,71.32-.09,.73,0,1.45,.08,2.18,.12-6.69,1.46-13.61,2.27-20.03,4.51-24.37,8.48-41.23,25.04-50.84,48.98-.21,.62-.43,1.25-.64,1.88-.17,.43-.34,.86-.51,1.28-.05,.17-.1,.35-.14,.53Z"/>
    <path fill="#a159fe" d="M251.75,233.61c.62-2.52,1.24-5.04,1.86-7.55-.62,2.52-1.24,5.04-1.86,7.55Z"/>
    <path fill="#a159fe" d="M254.8,222.37c.22-.63,.43-1.26,.64-1.88-.22,.63-.43,1.26-.64,1.88Z"/>
    <path fill="#a159fe" d="M254.16,224.17c.05-.18,.1-.36,.14-.53,.04,.23,0,.41-.14,.53Z"/>
  </symbol>
  <symbol id="icon-notion" viewBox="0 0 500 500"  width="500" height="500" fill="none">
 <path  fill="#5f9259" d="M492,275.62c0,52.91,.02,105.82,0,158.74-.01,37.72-7.75,46.19-45.24,48.34-78.91,4.51-157.83,8.82-236.74,13.18-29.9,1.65-59.81,4.48-89.69,4.1-9.65-.12-21.96-6.43-28.28-13.94-24.62-29.24-48.58-59.24-70.1-90.79-8.35-12.24-13.29-29.29-13.47-44.23-1.19-95.81-.69-191.64-.61-287.47,.02-31.56,10.11-40.7,41.72-42.88C137.93,14.58,226.32,8.77,314.48,.52c36.44-3.41,64.41,10.16,91.63,31.03,21.11,16.19,43.04,31.41,65.29,46.01,14.66,9.61,21.18,21.45,20.9,39.33-.84,52.9-.3,105.82-.29,158.73Zm-39.86,167.67c2.05-9.19,5.12-16.64,5.15-24.1,.31-92.9,.21-185.81,.13-278.71-.02-22.71-2.76-26-24.98-24.77-101.33,5.6-202.64,11.67-303.96,17.52-12.93,.75-19.11,6.14-19.04,20.31,.45,94.57,.24,189.14,.27,283.71,0,20.57,6.87,26.25,27.31,25,68.07-4.15,136.18-7.76,204.26-11.77,36.05-2.13,72.08-4.66,110.86-7.19Zm-27.53-362.84c-15.26-11.53-26.19-19.36-36.65-27.78-20.19-16.24-41.97-24.66-68.92-22.41-75.35,6.27-150.85,10.72-226.28,16.14-12.77,.92-25.44,3.11-39.28,4.85,18,33.48,61.55,51.98,102.54,45.93,3.69-.55,7.41-1.11,11.13-1.31,65.58-3.61,131.18-7.08,196.75-10.8,18.38-1.04,36.71-2.77,60.71-4.62Z"/>
  <path fill="#a4be89" d="M349.81,325.46V194.97c-8.23-1.23-16.16-2.42-29.24-4.38,7.01-7.81,10.95-16.41,15.96-17.09,23.71-3.21,47.71-4.26,71.75-6.09,4.89,21.73-12.41,18.41-22.7,23.82v210.77c-29.16,19.3-49.64,16-67.46-11.03-28.18-42.76-55.73-85.93-83.59-128.9-2.36-3.64-5.03-7.08-9.27-13v139.97c9.5,2.56,18.53,4.99,32.67,8.8-7.62,6.77-11.94,13.97-17.03,14.56-25.54,3.01-51.28,4.28-76.79,6.16q-1.58-9.19,21.87-23.21V207.19c-8.14-1.26-15.33-2.38-22.73-3.53-2.35-13.17,3.41-20.78,14.94-21.97,21.94-2.25,44.03-3.61,66.07-3.83,4.8-.05,11.17,5.26,14.26,9.83,25.89,38.29,51.18,76.98,76.65,115.55,4.09,6.19,8.16,12.39,14.64,22.22Z"/>
</symbol>
</svg>